<?xml version="1.0" standalone="no"?>
<svg xmlns:xlink="http://www.w3.org/1999/xlink" id="wave" style="transform:rotate(180deg); transition: 0.3s" viewBox="0 0 1440 490" version="1.1" xmlns="http://www.w3.org/2000/svg"><defs><linearGradient id="sw-gradient-0" x1="0" x2="0" y1="1" y2="0"><stop stop-color="rgba(46, 222, 33, 1)" offset="0%"/><stop stop-color="rgba(45.301, 175.262, 35.701, 1)" offset="100%"/></linearGradient></defs><path style="transform:translate(0, 0px); opacity:1" fill="url(#sw-gradient-0)" d="M0,196L24,171.5C48,147,96,98,144,106.2C192,114,240,180,288,204.2C336,229,384,212,432,220.5C480,229,528,261,576,236.8C624,212,672,131,720,122.5C768,114,816,180,864,204.2C912,229,960,212,1008,245C1056,278,1104,359,1152,359.3C1200,359,1248,278,1296,269.5C1344,261,1392,327,1440,318.5C1488,310,1536,229,1584,187.8C1632,147,1680,147,1728,179.7C1776,212,1824,278,1872,285.8C1920,294,1968,245,2016,261.3C2064,278,2112,359,2160,392C2208,425,2256,408,2304,334.8C2352,261,2400,131,2448,65.3C2496,0,2544,0,2592,73.5C2640,147,2688,294,2736,334.8C2784,376,2832,310,2880,245C2928,180,2976,114,3024,138.8C3072,163,3120,278,3168,285.8C3216,294,3264,196,3312,171.5C3360,147,3408,196,3432,220.5L3456,245L3456,490L3432,490C3408,490,3360,490,3312,490C3264,490,3216,490,3168,490C3120,490,3072,490,3024,490C2976,490,2928,490,2880,490C2832,490,2784,490,2736,490C2688,490,2640,490,2592,490C2544,490,2496,490,2448,490C2400,490,2352,490,2304,490C2256,490,2208,490,2160,490C2112,490,2064,490,2016,490C1968,490,1920,490,1872,490C1824,490,1776,490,1728,490C1680,490,1632,490,1584,490C1536,490,1488,490,1440,490C1392,490,1344,490,1296,490C1248,490,1200,490,1152,490C1104,490,1056,490,1008,490C960,490,912,490,864,490C816,490,768,490,720,490C672,490,624,490,576,490C528,490,480,490,432,490C384,490,336,490,288,490C240,490,192,490,144,490C96,490,48,490,24,490L0,490Z"/><defs><linearGradient id="sw-gradient-1" x1="0" x2="0" y1="1" y2="0"><stop stop-color="rgba(46, 222, 33, 1)" offset="0%"/><stop stop-color="rgba(47.132, 159.774, 38.812, 1)" offset="100%"/></linearGradient></defs><path style="transform:translate(0, 50px); opacity:0.9" fill="url(#sw-gradient-1)" d="M0,343L24,343C48,343,96,343,144,326.7C192,310,240,278,288,294C336,310,384,376,432,343C480,310,528,180,576,179.7C624,180,672,310,720,318.5C768,327,816,212,864,196C912,180,960,261,1008,285.8C1056,310,1104,278,1152,228.7C1200,180,1248,114,1296,147C1344,180,1392,310,1440,351.2C1488,392,1536,343,1584,318.5C1632,294,1680,294,1728,253.2C1776,212,1824,131,1872,122.5C1920,114,1968,180,2016,171.5C2064,163,2112,82,2160,98C2208,114,2256,229,2304,253.2C2352,278,2400,212,2448,171.5C2496,131,2544,114,2592,138.8C2640,163,2688,229,2736,269.5C2784,310,2832,327,2880,326.7C2928,327,2976,310,3024,294C3072,278,3120,261,3168,220.5C3216,180,3264,114,3312,130.7C3360,147,3408,245,3432,294L3456,343L3456,490L3432,490C3408,490,3360,490,3312,490C3264,490,3216,490,3168,490C3120,490,3072,490,3024,490C2976,490,2928,490,2880,490C2832,490,2784,490,2736,490C2688,490,2640,490,2592,490C2544,490,2496,490,2448,490C2400,490,2352,490,2304,490C2256,490,2208,490,2160,490C2112,490,2064,490,2016,490C1968,490,1920,490,1872,490C1824,490,1776,490,1728,490C1680,490,1632,490,1584,490C1536,490,1488,490,1440,490C1392,490,1344,490,1296,490C1248,490,1200,490,1152,490C1104,490,1056,490,1008,490C960,490,912,490,864,490C816,490,768,490,720,490C672,490,624,490,576,490C528,490,480,490,432,490C384,490,336,490,288,490C240,490,192,490,144,490C96,490,48,490,24,490L0,490Z"/><defs><linearGradient id="sw-gradient-2" x1="0" x2="0" y1="1" y2="0"><stop stop-color="rgba(46, 222, 33, 1)" offset="0%"/><stop stop-color="rgba(40.543, 171.159, 30.895, 1)" offset="100%"/></linearGradient></defs><path style="transform:translate(0, 100px); opacity:0.8" fill="url(#sw-gradient-2)" d="M0,196L24,220.5C48,245,96,294,144,302.2C192,310,240,278,288,220.5C336,163,384,82,432,40.8C480,0,528,0,576,32.7C624,65,672,131,720,130.7C768,131,816,65,864,106.2C912,147,960,294,1008,318.5C1056,343,1104,245,1152,196C1200,147,1248,147,1296,187.8C1344,229,1392,310,1440,310.3C1488,310,1536,229,1584,187.8C1632,147,1680,147,1728,196C1776,245,1824,343,1872,334.8C1920,327,1968,212,2016,179.7C2064,147,2112,196,2160,204.2C2208,212,2256,180,2304,179.7C2352,180,2400,212,2448,236.8C2496,261,2544,278,2592,277.7C2640,278,2688,261,2736,277.7C2784,294,2832,343,2880,318.5C2928,294,2976,196,3024,179.7C3072,163,3120,229,3168,269.5C3216,310,3264,327,3312,277.7C3360,229,3408,114,3432,57.2L3456,0L3456,490L3432,490C3408,490,3360,490,3312,490C3264,490,3216,490,3168,490C3120,490,3072,490,3024,490C2976,490,2928,490,2880,490C2832,490,2784,490,2736,490C2688,490,2640,490,2592,490C2544,490,2496,490,2448,490C2400,490,2352,490,2304,490C2256,490,2208,490,2160,490C2112,490,2064,490,2016,490C1968,490,1920,490,1872,490C1824,490,1776,490,1728,490C1680,490,1632,490,1584,490C1536,490,1488,490,1440,490C1392,490,1344,490,1296,490C1248,490,1200,490,1152,490C1104,490,1056,490,1008,490C960,490,912,490,864,490C816,490,768,490,720,490C672,490,624,490,576,490C528,490,480,490,432,490C384,490,336,490,288,490C240,490,192,490,144,490C96,490,48,490,24,490L0,490Z"/></svg>